<?xml version="1.0" standalone="no"?>
<!DOCTYPE svg PUBLIC "-//W3C//DTD SVG 20010904//EN"
 "http://www.w3.org/TR/2001/REC-SVG-20010904/DTD/svg10.dtd">
<svg version="1.0" xmlns="http://www.w3.org/2000/svg"
 width="350.000000pt" height="350.000000pt" viewBox="0 0 300.000000 294.000000"
 preserveAspectRatio="xMidYMid meet">
<metadata>
Created by potrace 1.10, written by Peter Selinger 2001-2011
</metadata>
<g transform="translate(0.000000,294.000000) scale(0.100000,-0.100000)"
fill="#ffffff" stroke="none">
<path d="M420 2923 c-86 -28 -123 -109 -85 -183 23 -45 62 -70 111 -70 l42 0
-15 -30 c-18 -37 -10 -79 22 -114 31 -33 91 -36 123 -6 22 21 31 21 646 20
685 0 682 0 798 -62 158 -84 224 -217 216 -433 -4 -98 -8 -118 -35 -177 -41
-86 -88 -138 -165 -176 -90 -46 -141 -52 -418 -52 -235 0 -249 1 -273 21 -15
11 -42 23 -60 26 -49 7 -96 -36 -104 -94 -5 -39 -2 -46 30 -78 40 -40 75 -45
116 -16 24 17 52 19 316 23 324 5 363 12 472 83 105 70 164 149 209 281 24 74
26 88 22 214 -4 110 -9 146 -28 195 -51 133 -142 237 -259 299 -125 66 -126
66 -826 66 -612 0 -631 1 -660 20 -16 11 -43 20 -59 20 -24 0 -27 2 -16 15 18
22 1237 22 1380 0 195 -29 324 -89 436 -200 120 -119 163 -230 165 -431 0
-102 -3 -131 -25 -199 -47 -147 -130 -244 -287 -335 -37 -22 -71 -49 -74 -60
-9 -29 -1 -41 279 -415 136 -181 254 -339 262 -350 8 -11 25 -35 39 -54 15
-21 25 -49 25 -68 0 -131 168 -184 226 -72 46 89 -18 193 -115 187 -22 -1 -42
0 -44 3 -4 4 -393 530 -483 653 -24 33 -44 65 -44 72 0 6 22 26 49 44 84 53
185 169 230 262 58 121 71 183 71 340 0 103 -5 150 -20 206 -67 243 -257 431
-510 506 -142 43 -207 46 -886 46 l-651 0 -24 26 c-13 15 -38 33 -56 40 -34
15 -39 15 -63 7z m75 -43 c18 -11 35 -29 38 -40 5 -20 15 -20 655 -20 400 0
681 -4 729 -11 451 -60 711 -348 690 -763 -12 -242 -105 -405 -309 -545 -27
-18 -48 -40 -48 -50 0 -10 122 -182 271 -382 149 -200 273 -369 275 -375 3 -7
23 -9 52 -6 41 3 52 0 80 -23 27 -22 32 -34 32 -69 0 -33 -6 -48 -27 -68 -38
-35 -65 -41 -107 -24 -42 17 -70 66 -62 107 5 24 -33 78 -304 444 -171 229
-310 420 -310 425 0 5 30 25 68 44 169 89 276 225 318 403 22 94 15 294 -14
376 -86 239 -260 379 -544 437 -90 19 -139 20 -768 20 l-671 0 -26 -30 c-20
-25 -32 -30 -66 -30 -104 1 -141 127 -53 181 40 24 61 24 101 -1z m113 -230
c21 -20 35 -20 651 -20 416 0 648 -4 683 -11 29 -6 89 -28 134 -49 134 -65
225 -173 270 -325 27 -91 26 -259 -3 -351 -45 -141 -146 -252 -281 -306 -55
-22 -70 -23 -365 -26 l-307 -3 -25 -25 c-30 -29 -54 -30 -89 -3 -36 28 -36 80
0 108 35 28 59 26 90 -4 l25 -25 258 0 c283 0 335 6 428 49 159 75 243 240
230 456 -9 158 -67 275 -176 358 -76 56 -145 83 -253 97 -48 6 -321 10 -662
10 l-579 0 -23 -25 c-28 -31 -76 -33 -104 -5 -62 62 33 160 98 100z"/>
<path d="M410 2825 c-17 -20 -5 -61 19 -68 23 -6 61 18 61 38 0 37 -56 58 -80
30z m40 -25 c0 -5 -5 -10 -11 -10 -5 0 -7 5 -4 10 3 6 8 10 11 10 2 0 4 -4 4
-10z"/>
<path d="M2838 629 c-28 -16 -23 -57 8 -71 23 -11 29 -10 45 11 17 21 18 26 6
45 -17 25 -35 30 -59 15z m40 -37 c2 -7 -3 -12 -12 -12 -9 0 -16 7 -16 16 0
17 22 14 28 -4z"/>
<path d="M99 2533 c-36 -22 -59 -64 -59 -108 0 -119 136 -174 214 -86 18 20
28 21 207 21 103 0 190 -4 193 -9 3 -5 6 -286 6 -625 l1 -616 -28 -37 c-68
-89 -10 -212 101 -213 32 0 45 7 77 39 35 35 39 44 39 89 0 42 -5 57 -29 84
l-28 33 -5 617 c-4 428 -2 620 5 627 13 13 64 14 71 2 3 -5 6 -381 6 -835 0
-724 -2 -830 -15 -849 -26 -37 -19 -94 14 -128 86 -85 211 33 140 132 -21 30
-21 31 -14 702 3 370 2 754 -2 854 -8 174 -9 183 -33 209 -49 53 -67 55 -386
53 l-294 -1 -35 31 c-41 36 -102 42 -146 14z m138 -48 l28 -35 320 0 c336 -1
339 -1 363 -47 9 -16 12 -244 12 -868 l0 -847 25 -30 c30 -36 31 -57 4 -92
-39 -49 -108 -29 -124 36 -5 21 -1 33 19 53 l26 26 0 830 0 831 -29 29 c-16
16 -39 29 -51 29 -12 0 -35 -13 -51 -29 l-29 -29 0 -622 0 -621 40 -38 c53
-50 54 -89 6 -137 -38 -38 -70 -43 -116 -19 -36 19 -50 43 -50 90 0 35 35 85
60 85 7 0 10 190 8 636 l-3 636 -28 24 c-28 24 -32 24 -214 24 l-186 0 -31
-36 c-25 -29 -38 -36 -69 -36 -47 0 -80 21 -97 61 -27 66 20 131 94 131 40 0
49 -4 73 -35z"/>
<path d="M132 2458 c-21 -21 -14 -57 13 -70 22 -10 29 -9 47 10 20 20 20 22 4
46 -18 28 -44 34 -64 14z"/>
<path d="M690 1011 c-16 -31 4 -63 37 -59 55 7 55 69 0 76 -18 2 -29 -3 -37
-17z m50 -21 c0 -5 -4 -10 -10 -10 -5 0 -10 5 -10 10 0 6 5 10 10 10 6 0 10
-4 10 -10z"/>
<path d="M1360 2473 c-70 -37 -72 -47 -72 -382 0 -324 2 -336 58 -380 25 -20
39 -21 228 -21 231 0 307 10 392 49 84 39 138 91 176 169 31 63 33 72 33 182
0 104 -3 121 -27 172 -46 98 -138 171 -263 208 -23 7 -133 14 -265 17 -203 4
-228 2 -260 -14z m525 -38 c176 -46 267 -164 268 -344 0 -91 -13 -141 -52
-203 -39 -61 -109 -111 -196 -140 -65 -21 -87 -23 -303 -23 l-234 0 -24 28
-24 28 0 310 0 310 25 24 24 25 228 0 c173 0 243 -4 288 -15z"/>
<path d="M1402 2384 c-22 -15 -22 -17 -22 -293 0 -261 1 -279 19 -295 17 -16
41 -17 233 -14 237 5 284 14 360 71 114 85 140 289 55 413 -69 100 -186 134
-456 134 -135 0 -171 -3 -189 -16z m503 -49 c68 -25 138 -97 153 -157 36 -141
-10 -268 -116 -322 -75 -38 -150 -47 -347 -44 l-180 3 -3 260 c-1 143 0 266 3
273 4 11 46 13 223 10 179 -4 226 -8 267 -23z"/>
<path d="M1092 2467 c-7 -8 -14 -122 -18 -313 -6 -237 -10 -304 -22 -322 -19
-29 -10 -87 19 -118 45 -48 114 -39 149 18 27 44 25 80 -5 116 l-25 30 0 289
c0 211 -3 292 -12 301 -16 16 -73 15 -86 -1z m68 -311 l0 -298 25 -20 c50 -39
20 -121 -45 -121 -58 0 -92 72 -54 114 14 15 16 56 14 316 0 164 1 301 4 303
2 3 16 5 30 5 l26 0 0 -299z"/>
<path d="M1090 1467 c-48 -37 -63 -95 -35 -134 12 -18 15 -100 15 -546 l1
-526 -31 -42 c-33 -46 -38 -85 -16 -127 42 -80 128 -103 185 -48 61 58 65 128
11 186 l-30 32 0 515 0 515 25 30 c38 45 29 103 -25 145 -19 16 -81 16 -100 0z
m100 -37 c28 -28 26 -73 -5 -101 l-25 -24 0 -529 0 -529 37 -32 c30 -26 37
-39 37 -68 0 -80 -80 -129 -145 -91 -62 36 -68 119 -13 163 l24 19 0 542 c1
474 -1 545 -15 560 -37 41 -2 110 55 110 17 0 39 -9 50 -20z"/>
<path d="M1109 171 c-21 -16 -22 -22 -11 -45 8 -17 19 -26 36 -26 47 0 61 50
20 77 -19 12 -24 11 -45 -6z m41 -26 c0 -8 -7 -15 -15 -15 -26 0 -18 20 13 29
1 1 2 -6 2 -14z"/>
<path d="M1316 1419 l-26 -31 0 -405 0 -405 -30 -35 c-35 -39 -39 -85 -14
-139 54 -114 224 -67 224 61 0 44 -13 73 -46 101 l-25 20 7 373 7 372 143 -3
c168 -4 148 8 277 -163 50 -66 95 -124 99 -130 5 -5 57 -74 117 -153 l108
-144 -5 -48 c-11 -119 109 -185 194 -107 82 75 41 198 -73 216 -36 6 -47 19
-243 283 -113 152 -216 289 -230 304 -52 55 -88 64 -282 64 l-176 0 -26 -31z
m420 -20 c37 -17 75 -64 269 -323 l226 -303 40 0 c51 0 87 -33 96 -86 7 -44
-13 -79 -58 -102 -77 -40 -171 56 -130 133 7 13 -36 77 -200 297 -115 154
-223 294 -240 310 l-29 30 -163 0 -162 0 -3 -391 -2 -392 35 -35 c27 -27 35
-43 35 -70 0 -97 -129 -136 -181 -54 -27 44 -19 94 21 128 l30 25 0 415 c0
309 3 418 12 427 8 8 64 12 187 12 156 0 179 -2 217 -21z"/>
<path d="M2240 706 c-28 -35 11 -93 48 -70 35 22 22 84 -18 84 -10 0 -23 -7
-30 -14z m40 -31 c0 -8 -4 -15 -9 -15 -13 0 -22 16 -14 24 11 11 23 6 23 -9z"/>
<path d="M1322 498 c-16 -16 -15 -53 3 -68 19 -16 45 -10 61 15 26 39 -31 86
-64 53z m38 -38 c0 -5 -4 -10 -10 -10 -5 0 -10 5 -10 10 0 6 5 10 10 10 6 0
10 -4 10 -10z"/>
<path d="M1916 1435 c-9 -9 -16 -19 -16 -23 0 -6 180 -245 302 -401 52 -65 68
-94 68 -118 0 -22 10 -44 29 -65 53 -59 137 -33 157 49 10 37 -21 89 -60 103
-17 6 -38 15 -46 19 -8 4 -89 107 -180 227 -157 209 -167 219 -201 222 -24 2
-42 -3 -53 -13z m253 -245 c154 -205 176 -230 201 -230 38 0 74 -44 65 -80 -8
-32 -40 -60 -72 -60 -36 0 -76 45 -70 78 4 22 -24 65 -183 274 l-189 248 37 0
c37 0 39 -3 211 -230z"/>
</g>
</svg>
