<?xml version="1.0" encoding="UTF-8"?>
<svg version="1.1" xmlns="http://www.w3.org/2000/svg" width="515" height="505">
<path d="M0 0 C169.95 0 339.9 0 515 0 C515 166.65 515 333.3 515 505 C345.05 505 175.1 505 0 505 C0 338.35 0 171.7 0 0 Z " fill="#010101" transform="translate(0,0)"/>
<path d="M0 0 C1.24602493 -0.00922989 2.49204987 -0.01845978 3.77583313 -0.02796936 C5.12685778 -0.00724733 6.47786621 0.0145557 7.82885742 0.03735352 C9.23686848 0.0409388 10.64488681 0.04228632 12.05290222 0.04151917 C15.00626565 0.04620477 17.95853367 0.07096587 20.91162109 0.11132812 C24.64581668 0.16179023 28.37880395 0.17350684 32.11329842 0.17189598 C57.33618586 0.1744523 82.51479603 0.62172962 101.62182617 19.72875977 C109.3713769 28.97451088 111.09861095 39.97180601 111.62182617 51.72875977 C111.6862793 52.94047852 111.75073242 54.15219727 111.81713867 55.40063477 C112.03236695 62.54621368 111.7205197 68.19061083 108.59448242 74.67797852 C107.64138619 76.68751876 107.0869152 78.55997619 106.62182617 80.72875977 C105.96182617 80.72875977 105.30182617 80.72875977 104.62182617 80.72875977 C104.34338867 81.71875977 104.34338867 81.71875977 104.05932617 82.72875977 C99.35163396 92.55350873 89.80489528 99.22624856 79.71313477 102.78857422 C63.37946657 107.75626939 46.24016483 107.29198811 29.34033203 107.28466797 C25.53150143 107.28435912 21.7242991 107.32583215 17.91585827 107.3769846 C14.95693843 107.41032079 11.99841985 107.41642724 9.03933144 107.41483879 C7.63390635 107.41836286 6.22846911 107.4315426 4.82323265 107.45483589 C2.86984418 107.48427578 0.91596048 107.47179716 -1.03759766 107.45751953 C-2.6982299 107.46393211 -2.6982299 107.46393211 -4.39241028 107.47047424 C-7.75524518 106.63508882 -9.39257246 105.40710187 -11.44392872 102.6052084 C-13.22396729 99.0299679 -13.08059076 95.43884694 -13.04101562 91.51391602 C-13.05138351 90.60584198 -13.0617514 89.69776794 -13.07243347 88.76217651 C-13.09945727 85.77140641 -13.08985222 82.78210737 -13.07739258 79.79125977 C-13.08330291 77.70670158 -13.09055023 75.62214679 -13.09907532 73.53759766 C-13.11094762 69.17307828 -13.10426041 64.80906914 -13.08496094 60.44458008 C-13.06206891 54.85546663 -13.08886176 49.26787289 -13.130023 43.6789093 C-13.15561427 39.37566828 -13.15301755 35.07279028 -13.1421299 30.76950073 C-13.14064438 28.70904154 -13.1483196 26.64855437 -13.16538048 24.58816528 C-13.18537555 21.70571043 -13.1669457 18.82593541 -13.13867188 15.94360352 C-13.15238831 15.09563202 -13.16610474 14.24766052 -13.18023682 13.37399292 C-13.09654068 9.09821785 -12.64169463 6.43841345 -9.72927856 3.19837952 C-6.58676128 0.51293256 -4.17308341 -0.01636534 0 0 Z " fill="#020202" transform="translate(248.378173828125,92.271240234375)"/>
<path d="M0 0 C5.65769411 0.48773225 9.73423642 2.79988913 14.125 6.3125 C15.625 8.3125 15.625 8.3125 15.625 12.3125 C16.76837452 12.31065641 17.91174904 12.30881283 19.08977127 12.30691338 C46.93356434 12.26247897 74.7773528 12.2296317 102.62117386 12.20887566 C105.30376438 12.20683603 107.98635486 12.20475338 110.66894531 12.20263672 C111.3356953 12.2021121 112.00244528 12.20158748 112.68939981 12.20104696 C123.46747054 12.19235822 134.24551981 12.17659673 145.02357784 12.15819441 C156.09323618 12.13945267 167.16288272 12.12852383 178.2325561 12.12432301 C184.445843 12.12171981 190.6590813 12.11561784 196.8723526 12.10103989 C202.72618124 12.08741718 208.5799415 12.08328684 214.43378448 12.08628464 C216.57667411 12.08573657 218.71956614 12.08178719 220.86244202 12.07408905 C231.34562449 12.03829123 241.3179613 12.17135665 251.625 14.3125 C252.97148317 14.46510561 254.32071315 14.59593731 255.671875 14.69921875 C264.49591557 15.41593934 272.68357267 17.21508109 281.1875 19.6875 C282.19844727 19.97971436 283.20939453 20.27192871 284.25097656 20.57299805 C289.39639394 22.12679106 294.1570742 23.89328537 298.90698242 26.41113281 C301.20637098 27.61751942 303.57958294 28.56466533 306 29.5 C310.48611111 31.24305556 310.48611111 31.24305556 312.625 32.3125 C312.625 32.9725 312.625 33.6325 312.625 34.3125 C313.3571875 34.58191406 314.089375 34.85132813 314.84375 35.12890625 C331.31881534 42.14006468 344.92482268 57.83218723 354.625 72.3125 C355.305625 73.28123047 355.305625 73.28123047 356 74.26953125 C359.33397016 79.2183932 361.37399989 84.47334869 363.4140625 90.06640625 C364.22575164 92.24225682 365.11144591 94.39181474 366.06567383 96.5090332 C371.57512279 109.35362904 372.25129024 123.17356334 372.09155273 136.95556641 C372.06229626 139.70665856 372.07106458 142.4558458 372.08398438 145.20703125 C372.07090494 154.67207815 371.6766729 163.2655977 368.625 172.3125 C367.965 172.3125 367.305 172.3125 366.625 172.3125 C366.49222656 173.17101562 366.35945313 174.02953125 366.22265625 174.9140625 C365.64082601 178.22250896 364.89402542 181.43370487 364.0625 184.6875 C363.65837891 186.27691406 363.65837891 186.27691406 363.24609375 187.8984375 C362.93865234 189.09339844 362.93865234 189.09339844 362.625 190.3125 C361.965 190.3125 361.305 190.3125 360.625 190.3125 C360.37234375 191.16070312 360.1196875 192.00890625 359.859375 192.8828125 C358.53867392 196.55235539 356.83100677 199.83151102 354.875 203.1875 C354.51865479 203.80246338 354.16230957 204.41742676 353.79516602 205.05102539 C345.22852041 219.62604752 333.5631151 229.91146097 319.16796875 238.671875 C317.90919922 239.48398437 317.90919922 239.48398437 316.625 240.3125 C315.69300781 240.87453125 314.76101563 241.4365625 313.80078125 242.015625 C311.26037458 244.2603126 311.26037458 244.2603126 311.0390625 248.14453125 C311.33657227 252.58153038 313.28431422 255.58889469 316 259 C316.44537109 259.59159912 316.89074219 260.18319824 317.34960938 260.79272461 C318.75459807 262.64921125 320.18570166 264.48252108 321.625 266.3125 C323.02121122 268.10160525 324.41592495 269.89181243 325.80712891 271.68481445 C327.05828628 273.28943886 328.32558936 274.8814357 329.59375 276.47265625 C331.625 279.3125 331.625 279.3125 332.578125 281.73828125 C334.08127217 285.43445283 336.44381103 288.29690516 338.875 291.4375 C339.96831388 292.87173613 341.06072524 294.30666058 342.15234375 295.7421875 C342.7232373 296.49081055 343.29413086 297.23943359 343.88232422 298.01074219 C346.77488823 301.83129325 349.60389907 305.69813468 352.4375 309.5625 C357.29582318 316.17439524 362.19400742 322.754637 367.125 329.3125 C373.75225025 338.12859038 380.30844551 346.99497649 386.83837891 355.88330078 C388.73697102 358.46474264 390.63951446 361.04323523 392.54296875 363.62109375 C393.18419678 364.48984131 393.8254248 365.35858887 394.48608398 366.25366211 C395.71821481 367.92277975 396.9507791 369.59157754 398.18383789 371.26000977 C398.73676514 372.00951904 399.28969238 372.75902832 399.859375 373.53125 C400.34631836 374.19060547 400.83326172 374.84996094 401.33496094 375.52929688 C402.46922897 377.09717986 403.55156969 378.70235454 404.625 380.3125 C405.615 380.1475 406.605 379.9825 407.625 379.8125 C414.82261611 378.85667975 419.74600267 378.41324349 425.85546875 382.703125 C429.51111213 386.02790441 431.44979882 389.66202059 431.77734375 394.6171875 C431.4386047 399.77644383 430.04258572 403.32531667 426.625 407.3125 C422.5018286 410.72884202 417.8697015 411.45668423 412.625 411.3125 C407.4267056 409.75301168 403.87915786 407.68236913 400.625 403.3125 C399.1649772 398.96875059 398.11925999 394.99278572 399.4609375 390.53515625 C399.7223145 385.40096525 396.71866878 382.58442585 393.625 378.6875 C392.99142578 377.85992187 392.35785156 377.03234375 391.70507812 376.1796875 C390.36472664 374.42945468 389.01754424 372.68443485 387.6640625 370.94433594 C384.43211069 366.77282725 381.28322184 362.53991369 378.125 358.3125 C376.86606762 356.63658187 375.60695302 354.96080059 374.34765625 353.28515625 C368.98391529 346.13303591 363.69143828 338.92864959 358.3984375 331.72412109 C356.53907426 329.1956533 354.67624385 326.66977158 352.8125 324.14453125 C352.18480713 323.29383057 351.55711426 322.44312988 350.91040039 321.56665039 C349.71720395 319.94971078 348.52370362 318.33299536 347.32983398 316.71655273 C346.51494507 315.61162476 346.51494507 315.61162476 345.68359375 314.484375 C344.90665161 313.4312915 344.90665161 313.4312915 344.11401367 312.35693359 C342.68000072 310.38801665 341.2840067 308.39621175 339.890625 306.3984375 C337.78756677 303.24795608 337.78756677 303.24795608 334.9375 301.1875 C332.26088766 299.01727378 331.85614403 297.46730658 330.625 294.3125 C328.96538046 292.63881588 327.29771621 290.97309508 325.625 289.3125 C324.21349444 287.54944966 322.8395495 285.75582384 321.5 283.9375 C320.72269531 282.88691406 319.94539063 281.83632813 319.14453125 280.75390625 C318.30389889 279.60734861 317.46408085 278.46019357 316.625 277.3125 C315.97023682 276.41700439 315.97023682 276.41700439 315.30224609 275.50341797 C314.85574707 274.89256348 314.40924805 274.28170898 313.94921875 273.65234375 C313.02866093 272.39321813 312.10808788 271.13410365 311.1875 269.875 C310.73044678 269.24899902 310.27339355 268.62299805 309.80249023 267.97802734 C305.8315262 262.55539561 301.7459375 257.228074 297.62109375 251.921875 C293.04636249 245.94160008 293.04636249 245.94160008 293.625 241.3125 C294.75 239.5625 294.75 239.5625 296.625 238.3125 C299.8125 237.625 299.8125 237.625 302.625 237.3125 C302.625 236.6525 302.625 235.9925 302.625 235.3125 C303.41261719 234.92320312 304.20023437 234.53390625 305.01171875 234.1328125 C329.29935814 221.65845097 346.6988832 202.25049179 355.625 176.3125 C357.34052564 170.38881467 358.54670034 164.38022013 359.625 158.3125 C359.91310547 156.94544922 359.91310547 156.94544922 360.20703125 155.55078125 C364.0974584 125.40906062 358.50674525 95.26020585 340.375 70.6875 C330.735695 58.98573109 319.50264638 48.76560557 305.625 42.3125 C305.625 41.6525 305.625 40.9925 305.625 40.3125 C304.944375 40.209375 304.26375 40.10625 303.5625 40 C300.77446099 39.34748023 298.37537644 38.36304939 295.76953125 37.19921875 C291.15856814 35.29268209 286.36594694 33.85870811 281.625 32.3125 C280.96322754 32.07547363 280.30145508 31.83844727 279.61962891 31.59423828 C273.74102302 29.52412268 267.88342468 28.25678603 261.75 27.1875 C260.83347656 27.01863281 259.91695313 26.84976563 258.97265625 26.67578125 C253.23567846 25.65103276 247.55152546 24.97420602 241.73779297 24.56298828 C239.625 24.3125 239.625 24.3125 238.625 23.3125 C235.76431478 23.20123544 232.92733279 23.15578743 230.0657196 23.15187073 C229.15705527 23.14678291 228.24839093 23.14169509 227.31219131 23.13645309 C224.2428785 23.12065607 221.17358934 23.11218456 218.10424805 23.10375977 C215.91357267 23.09422725 213.72289882 23.08433636 211.53222656 23.07411194 C204.31707561 23.04266064 197.10191289 23.02245443 189.88671875 23.00390625 C188.04819977 22.99896027 188.04819977 22.99896027 186.172539 22.99391437 C174.6228195 22.96313349 163.0730975 22.93641326 151.52334881 22.91949558 C148.84670185 22.91554589 146.17005498 22.91154292 143.4934082 22.9074707 C142.82811585 22.90646234 142.1628235 22.90545398 141.47737078 22.90441506 C130.69708994 22.88740374 119.91703849 22.84629142 109.13686969 22.79544771 C98.07626632 22.74370929 87.01575832 22.71504102 75.95503265 22.7072987 C69.74186253 22.70233085 63.52909989 22.68714215 57.31604576 22.6475544 C51.47273407 22.61081408 45.63006471 22.60223708 39.78665924 22.61556053 C37.63877359 22.61550637 35.49086039 22.60512587 33.34308052 22.5838089 C30.41634537 22.55630738 27.49198213 22.56555515 24.56523132 22.58424377 C23.70988334 22.56744885 22.85453535 22.55065392 21.97326773 22.53335005 C19.70090944 22.5697561 17.80060213 22.65394939 15.625 23.3125 C13.15161908 26.10315627 13.15161908 26.10315627 11.625 29.3125 C7.42283955 33.02603714 4.29306659 33.85452207 -1.13671875 33.5625 C-6.14970555 33.00258524 -9.82309044 32.32177459 -13.1875 28.4375 C-16.76072296 23.33289578 -17.90748829 20.70235946 -17.375 14.3125 C-16.0335066 8.79980056 -13.96994157 4.83885051 -9.375 1.3125 C-6.21788674 0.42027234 -3.2630938 0.30213831 0 0 Z " fill="#A4A4A4" transform="translate(76.375,7.6875)"/>
<path d="M0 0 C4 4.20512821 4 4.20512821 4 7 C4.55806965 6.99815641 5.1161393 6.99631283 5.69112015 6.99441338 C19.27015114 6.95024479 32.84916955 6.91727618 46.42825699 6.89637566 C52.9950045 6.88592915 59.56170025 6.87175405 66.12841797 6.84912109 C72.46316793 6.82742376 78.79786803 6.81543791 85.13265228 6.81024551 C87.55201757 6.80654417 89.97138007 6.79931659 92.39072418 6.78853989 C95.7738896 6.77406645 99.15684778 6.77202034 102.54003906 6.77294922 C103.54488846 6.76575867 104.54973785 6.75856812 105.58503723 6.75115967 C106.50767868 6.753909 107.43032013 6.75665833 108.38092041 6.75949097 C109.58109488 6.75672559 109.58109488 6.75672559 110.80551529 6.75390434 C113.24982766 7.02801637 114.8812522 7.78052358 117 9 C117 9.66 117 10.32 117 11 C117.5775 11.226875 118.155 11.45375 118.75 11.6875 C122.14222063 13.66629537 124.25493471 16.50986942 126 20 C126.09420462 21.60230651 126.12479324 23.2085319 126.12469864 24.81360531 C126.12708959 25.83637221 126.12948054 26.85913912 126.13194394 27.91289896 C126.1282952 29.61116267 126.1282952 29.61116267 126.12457275 31.34373474 C126.1259829 32.53980774 126.12739305 33.73588073 126.12884593 34.96819836 C126.13124103 37.601836 126.13179215 40.23540122 126.12928963 42.86903191 C126.12523883 47.15342758 126.12799445 51.43780339 126.13163757 55.72219849 C126.13573166 61.13506938 126.13796728 66.54793583 126.13805357 71.96080828 C126.13825603 82.59417739 126.15070001 93.22750075 126.16766357 103.8608551 C126.17026941 105.53344469 126.17286822 107.20603429 126.1754601 108.8786239 C126.17939858 111.41362698 126.18334508 113.94863004 126.18732132 116.48363305 C126.20227379 126.04548339 126.2158956 135.60733512 126.22802734 145.16918945 C126.22969769 146.48068774 126.22969769 146.48068774 126.23140177 147.81868095 C126.24898528 161.99439284 126.25184535 176.1700762 126.25017694 190.34579717 C126.24889926 204.8880537 126.26659835 219.43020372 126.30119491 233.97241932 C126.32188219 242.94900048 126.32715437 251.92532696 126.3128666 260.90192176 C126.30442699 267.05011838 126.31408764 273.19811644 126.3381761 279.34627109 C126.35152405 282.8971084 126.35660423 286.44746989 126.34005547 289.99830437 C126.32233821 293.84222623 126.34293904 297.6853843 126.36749268 301.52928162 C126.3561373 302.6592267 126.34478192 303.78917179 126.33308244 304.95335764 C126.36780506 307.73013691 126.41855104 310.28476119 127 313 C129.32312419 315.18012967 129.32312419 315.18012967 132 316 C133.52255149 320.0991771 133.1417141 324.67771981 133 329 C132.67 329.66 132.34 330.32 132 331 C131.34 331 130.68 331 130 331 C129.67 331.99 129.34 332.98 129 334 C124.7656659 336.51413587 119.78539058 336.88425696 115 336 C112 333.5625 112 333.5625 110 331 C109.67 330.67 109.34 330.34 109 330 C107.92233456 319.96231618 107.92233456 319.96231618 110.046875 316.09375 C111.375 314.75 111.375 314.75 114 313 C114.66 313 115.32 313 116 313 C115.98689842 276.55698359 115.94759809 240.11408966 115.87314438 203.67114573 C115.86437759 199.36906172 115.85582779 195.06697729 115.84741211 190.76489258 C115.84573305 189.90842231 115.84405398 189.05195205 115.84232404 188.16952813 C115.81565172 174.30031848 115.80655879 160.43115015 115.80395857 146.56191748 C115.80089949 132.33157968 115.77895808 118.10136141 115.73947543 103.8710776 C115.71570644 95.08965604 115.70667896 86.30847305 115.71648689 77.52702374 C115.72180123 71.50585077 115.70878005 65.48489165 115.6813371 59.46377956 C115.6660433 55.98942537 115.65883741 52.51554976 115.67340279 49.04118156 C115.68498307 45.27277212 115.66596632 41.50571555 115.63923645 37.7374115 C115.64990971 36.64109923 115.66058297 35.54478696 115.67157966 34.4152531 C115.58177938 27.64164899 114.68327062 24.00408712 110 19 C104.50053882 17.16684627 99.71092888 17.14453556 94.5 19.75 C91.85555204 22.13000316 91.55810746 22.6784018 91 26 C90.8909058 28.88787044 90.83482262 31.75252782 90.82591248 34.64083862 C90.81941352 35.52207024 90.81291457 36.40330185 90.80621868 37.31123745 C90.78580788 40.26981981 90.77260141 43.2283885 90.75952148 46.18701172 C90.74670947 48.30592031 90.73357398 50.42482696 90.72013855 52.54373169 C90.60436233 71.86434319 90.54763621 91.18546738 90.50337124 110.50636101 C90.47009317 124.79184752 90.41045422 139.07670213 90.31586021 153.36191738 C90.25160653 163.40361391 90.21784659 173.44513779 90.20662171 183.48703206 C90.19905081 189.48687134 90.17777975 195.48594677 90.12359428 201.48556137 C90.0732338 207.12797319 90.06052947 212.76921475 90.07684517 218.41181564 C90.07624045 220.4830992 90.06191426 222.55443078 90.03289795 224.62551117 C89.99534643 227.45349695 90.00711977 230.2771589 90.03123474 233.10519409 C90.00861413 233.9254334 89.98599352 234.7456727 89.96268743 235.59076774 C90.04041268 239.16997634 90.19261951 241.18461765 92.7761308 243.79373384 C94.89756088 245.41389691 94.89756088 245.41389691 97.090653 246.75644886 C99.69660139 248.45369409 100.83380394 250.13589396 102 253 C102.36328125 255.97265625 102.36328125 255.97265625 102.3125 259.0625 C102.30863281 260.08472656 102.30476562 261.10695313 102.30078125 262.16015625 C101.99440413 265.05283375 101.64223265 266.62054216 100 269 C97.90625 270.66796875 97.90625 270.66796875 95.5 272.1875 C94.7059375 272.69667969 93.911875 273.20585937 93.09375 273.73046875 C88.65662282 276.42089101 85.12187194 276.4333225 80 276 C75.18658878 274.67867143 73.26604173 272.30082857 70.625 268.25 C67.81489408 263.1608318 67.12573153 259.69609434 68.48046875 253.96875 C70.10594913 248.68840161 72.41948113 246.05367925 77 243 C77.99 243 78.98 243 80 243 C79.93951134 215.18415267 79.86204394 187.36839767 79.76428509 159.55265522 C79.71929258 146.63773221 79.67988587 133.722837 79.65356445 120.80786133 C79.63061238 109.55302011 79.59724561 98.29826659 79.55129844 87.04349488 C79.52732862 81.0825092 79.50862447 75.12161057 79.50238609 69.16057777 C79.49635228 63.55209921 79.47641406 57.94384349 79.44572449 52.33544731 C79.43691692 50.27510244 79.43322728 48.21472848 79.43499184 46.15436554 C79.43663876 43.34449786 79.41999489 40.53531419 79.39872742 37.72554016 C79.40357499 36.90744143 79.40842257 36.08934271 79.41341704 35.24645311 C79.35557853 30.6262306 78.78177829 27.71525445 76 24 C75.505 23.2575 75.01 22.515 74.5 21.75 C73.02143732 19.7213148 73.02143732 19.7213148 70 19 C70 18.34 70 17.68 70 17 C47.89 17 25.78 17 3 17 C2.67 18.65 2.34 20.3 2 22 C0.6953125 23.984375 0.6953125 23.984375 -0.875 25.75 C-1.38804688 26.34296875 -1.90109375 26.9359375 -2.4296875 27.546875 C-5.81455618 30.67914154 -10.0784372 30.33199344 -14.4296875 30.28125 C-19.60096255 29.71539619 -22.80763591 27.25512009 -26.375 23.5 C-29.76322335 18.28734869 -29.86660081 12.04120758 -29 6 C-26.88535837 1.31002696 -24.33021245 -1.3725413 -19.6875 -3.5625 C-12.52137224 -4.41271855 -6.34092837 -3.48129401 0 0 Z " fill="#C8C8C8" transform="translate(40,76)"/>
<path d="M0 0 C1.2375 0.07347656 2.475 0.14695313 3.75 0.22265625 C5.35875 0.57650391 5.35875 0.57650391 7 0.9375 C7.38394519 1.60181723 7.76789038 2.26613445 8.16347027 2.9505825 C9.98354875 5.343801 9.98354875 5.343801 13.77258778 5.43972206 C15.39307307 5.46135473 17.01394179 5.460642 18.63447571 5.44302368 C19.97341748 5.45215886 19.97341748 5.45215886 21.33940858 5.46147859 C24.34282639 5.47714605 27.3454544 5.46426311 30.34887695 5.45166016 C32.49719751 5.45711786 34.64551417 5.46435746 36.79382324 5.47325134 C41.42651795 5.4886192 46.05899108 5.49137768 50.6917057 5.48448563 C58.01535876 5.4737259 65.33877913 5.49105001 72.66239929 5.51229858 C84.24680838 5.54259493 95.83114887 5.55425659 107.41559428 5.55787504 C128.15685252 5.56451533 148.8980631 5.59349715 169.63926286 5.6429714 C176.92086405 5.65948406 184.20236552 5.66488311 191.48398364 5.66138101 C196.01411134 5.66094416 200.54420137 5.66850589 205.07431793 5.67805672 C207.17618597 5.68074101 209.27806162 5.67998523 211.37992668 5.67554665 C214.24823866 5.66990823 217.1162774 5.67644938 219.98457336 5.6859436 C221.23346477 5.67894878 221.23346477 5.67894878 222.5075863 5.67181265 C227.08327166 5.70140341 230.67954252 6.25261834 235 7.9375 C236.70295694 8.24030541 238.41183616 8.51162399 240.125 8.75 C259.63040681 12.15948168 280.2277989 25.8706711 292.05078125 41.6796875 C305.48101736 61.15479447 309.13138036 79.49580627 309.25 102.75 C309.26389771 104.44854126 309.26389771 104.44854126 309.27807617 106.18139648 C309.20889548 124.72860452 309.20889548 124.72860452 306 127.9375 C305.46620556 130.77244192 305.03490823 133.61742619 304.59765625 136.46875 C304.40042969 137.2834375 304.20320313 138.098125 304 138.9375 C303.34 139.2675 302.68 139.5975 302 139.9375 C300.90333791 142.21049769 300.90333791 142.21049769 299.9375 144.875 C298.03030303 149.87689394 298.03030303 149.87689394 297 151.9375 C296.34 151.9375 295.68 151.9375 295 151.9375 C294.91234375 152.65550781 294.8246875 153.37351563 294.734375 154.11328125 C291.89470947 165.03390986 278.69355761 173.95225878 269.4609375 179.44921875 C264.65899123 181.9375 264.65899123 181.9375 262 181.9375 C261.67 182.9275 261.34 183.9175 261 184.9375 C258.29591687 185.97132626 255.71876035 186.8046124 252.9375 187.5625 C252.19822266 187.7790625 251.45894531 187.995625 250.69726562 188.21875 C242.5885299 190.51728926 234.74505687 191.08336003 226.35864258 191.04760742 C224.43414814 191.04814957 222.50965371 191.04873651 220.5851593 191.04936218 C219.57635523 191.04793402 218.56755116 191.04650585 217.52817726 191.04503441 C212.15740666 191.04149407 206.7867382 191.06731941 201.41601562 191.08789062 C194.59504335 191.11225719 187.77437902 191.12786192 180.95336914 191.11254883 C175.42607124 191.10090518 169.89953025 191.1182255 164.37235069 191.15499306 C162.26922928 191.16361445 160.16603551 191.16151909 158.06293678 191.148489 C155.12550098 191.13163663 152.19046832 191.15174231 149.25317383 191.18041992 C148.38604767 191.16662796 147.51892151 191.152836 146.6255188 191.1386261 C142.16248524 191.15698733 142.16248524 191.15698733 138.41205406 193.29317665 C137.20375459 194.78656816 136.0954035 196.35943251 135 197.9375 C131.1876368 199.18579591 127.86621078 198.93576555 124 197.9375 C120.03905165 195.34004506 117.63375295 192.22996437 116.3671875 187.6484375 C116.01098089 183.14164955 116.96552947 180.43541103 119.8125 176.9375 C122.7254447 173.83035898 124.96945651 173.05640886 129.25 172.5625 C133.94494746 173.03199475 136.59082858 174.75945885 140 177.9375 C140.33 178.5975 140.66 179.2575 141 179.9375 C154.1782497 179.96068254 167.35649453 179.97844526 180.53476048 179.98931217 C186.65412174 179.99452805 192.77346904 180.00160221 198.89282227 180.01293945 C204.79964777 180.02381431 210.70645986 180.02978661 216.6132946 180.03237724 C218.86550037 180.03422319 221.11770542 180.03782785 223.36990547 180.04323006 C226.52730007 180.05050147 229.68463938 180.05148836 232.84204102 180.05102539 C233.77064941 180.05462067 234.69925781 180.05821594 235.65600586 180.06192017 C240.54704701 180.05417296 245.1778005 179.7670912 250 178.9375 C250.33 177.9475 250.66 176.9575 251 175.9375 C254.32091002 174.23216783 256.18492784 173.9375 260 173.9375 C260 173.2775 260 172.6175 260 171.9375 C261.81110905 170.78362429 263.6767321 169.71483859 265.5625 168.6875 C275.27642847 163.13017633 280.65331293 157.15894466 287 147.9375 C287.7425 146.9475 288.485 145.9575 289.25 144.9375 C301.43062237 124.05643308 300.67231723 94.81853486 295.12890625 72.0625 C289.50878636 50.93122926 275.90232087 37.19065607 257.50488281 26.33740234 C250.90782828 22.62895529 244.3696918 20.65817694 237 18.9375 C236.34 18.6075 235.68 18.2775 235 17.9375 C224.58144328 16.21512301 213.72230466 16.76274729 203.19848633 16.73217773 C201.09836643 16.72258585 198.9982484 16.71257502 196.89813232 16.70217896 C191.22335695 16.67526574 185.54857337 16.65418308 179.87377 16.63417697 C173.93338436 16.61223312 167.9930236 16.58488571 162.05265808 16.55812073 C150.81555164 16.50830698 139.5784313 16.46332639 128.34129781 16.42009836 C115.54320445 16.37062896 102.74513607 16.31574696 89.9470669 16.26041877 C63.63140127 16.14677258 37.31571165 16.03989606 11 15.9375 C11 16.9275 11 17.9175 11 18.9375 C6.77777778 21.9375 6.77777778 21.9375 4 21.9375 C4 22.5975 4 23.2575 4 23.9375 C-4.95652174 24.7201087 -4.95652174 24.7201087 -9 21.6875 C-12.52932349 16.8346802 -13.54100704 14.10498029 -13 7.9375 C-11.6875 5.1875 -11.6875 5.1875 -10 2.9375 C-9.61457031 2.39480469 -9.22914062 1.85210937 -8.83203125 1.29296875 C-5.95301754 -0.83713308 -3.49586654 -0.25854846 0 0 Z " fill="#C2C2C2" transform="translate(97,47.0625)"/>
<path d="M0 0 C1.17827362 -0.00930542 2.35654724 -0.01861084 3.57052612 -0.02819824 C5.46751755 -0.00360535 5.46751755 -0.00360535 7.40283203 0.02148438 C9.3649614 0.02142395 9.3649614 0.02142395 11.36672974 0.0213623 C14.13251387 0.02301304 16.89748502 0.04165814 19.66308594 0.07324219 C23.19258645 0.11284245 26.72101958 0.11729515 30.2507 0.10977936 C33.63487175 0.10595425 37.01871281 0.12681637 40.40283203 0.14648438 C41.66344452 0.14668579 42.92405701 0.14688721 44.22286987 0.14709473 C55.43049039 0.2976413 62.62498583 3.26585561 70.84814453 11.11523438 C75.25802618 15.65799382 78.96856082 20.63060071 82.6796875 25.75 C84.18575858 27.82172903 85.70527631 29.88313854 87.22705078 31.94335938 C92.06128577 38.48843356 96.8826418 45.04292864 101.69580078 51.60351562 C106.85595924 58.63121317 112.01663799 65.65363244 117.34814453 72.55273438 C118.13189453 73.56722656 118.91564453 74.58171875 119.72314453 75.62695312 C121.30562636 77.67188319 122.88900276 79.7161212 124.47314453 81.75976562 C128.41765035 86.91746649 132.02391363 91.92443171 134.86767578 97.77539062 C136.26745626 99.98039599 137.9438529 101.08238302 140.03564453 102.61523438 C140.72317754 104.27340222 141.39125736 105.93982774 142.03564453 107.61523438 C143.02564453 108.27523437 144.01564453 108.93523437 145.03564453 109.61523438 C145.36564453 110.60523438 145.69564453 111.59523438 146.03564453 112.61523438 C146.66470703 112.56882812 147.29376953 112.52242188 147.94189453 112.47460938 C154.22340162 112.20972655 158.90277962 112.81003891 164.03564453 116.61523438 C167.52197843 120.45914098 168.84727677 124.08210068 169.19189453 129.17382812 C168.89571246 133.80167292 167.46377428 137.68364057 165.03564453 141.61523438 C160.03400338 145.99167038 155.3952855 146.23087618 148.85205078 146.00976562 C144.82754645 145.44600011 143.01047659 144.35521127 140.03564453 141.61523438 C136.59830896 136.45923102 135.53008094 130.5649615 136.57861328 124.44726562 C137.30933736 121.79538904 138.10463907 119.20302913 139.03564453 116.61523438 C138.43510254 116.36104736 137.83456055 116.10686035 137.21582031 115.8449707 C134.77042543 114.46563655 133.74744923 113.2302841 132.15283203 110.93945312 C131.63076172 110.20082031 131.10869141 109.4621875 130.57080078 108.70117188 C130.02294922 107.9096875 129.47509766 107.11820312 128.91064453 106.30273438 C127.74300784 104.64923544 126.5737259 102.99689714 125.40283203 101.34570312 C124.82887695 100.53407715 124.25492188 99.72245117 123.66357422 98.88623047 C121.5247667 95.90254907 119.29544436 93.00851907 117.03564453 90.11523438 C112.47465269 84.24898308 108.12553655 78.24499338 103.79052734 72.21044922 C99.28813589 65.94735347 94.68862601 59.76750989 90.03564453 53.61523438 C88.53480503 51.61586427 87.03481727 49.61585455 85.53564453 47.61523438 C84.79314453 46.62523437 84.05064453 45.63523437 83.28564453 44.61523438 C81.03564453 41.61523437 78.78564453 38.61523438 76.53564453 35.61523438 C75.79056641 34.63296875 75.04548828 33.65070313 74.27783203 32.63867188 C72.76018833 30.59223246 71.28691247 28.51226348 69.85595703 26.40429688 C68.76927734 24.83808594 68.76927734 24.83808594 67.66064453 23.24023438 C67.03416016 22.304375 66.40767578 21.36851562 65.76220703 20.40429688 C57.98811276 12.45199987 51.17331045 11.0974856 40.34814453 10.92382812 C37.04253966 10.91487094 33.7406988 10.94235683 30.43554688 10.99780273 C27.0164167 11.05304504 23.59970856 11.05932766 20.18017578 11.05859375 C18.00697754 11.07332536 15.83379579 11.09080424 13.66064453 11.11132812 C12.6388208 11.1146666 11.61699707 11.11800507 10.56420898 11.1214447 C9.14628052 11.15015404 9.14628052 11.15015404 7.69970703 11.17944336 C6.86906738 11.19087875 6.03842773 11.20231415 5.18261719 11.21409607 C2.45442773 11.72382836 1.71781362 12.42452266 0.03564453 14.61523438 C-0.4250404 17.12468618 -0.4250404 17.12468618 -0.36549377 19.99827576 C-0.3846862 21.67441452 -0.3846862 21.67441452 -0.40426636 23.38441467 C-0.4029068 24.61099289 -0.40154724 25.83757111 -0.40014648 27.10131836 C-0.41022232 28.39255615 -0.42029816 29.68379395 -0.43067932 31.01416016 C-0.45719744 34.55756906 -0.46421346 38.10076068 -0.46612668 41.64425921 C-0.4689746 44.60159672 -0.48001006 47.55888355 -0.49064296 50.51620156 C-0.51507538 57.49267935 -0.52239575 64.46904099 -0.52026367 71.44555664 C-0.51846074 78.64455703 -0.55012648 85.84288341 -0.59749466 93.04171318 C-0.63670677 99.22101056 -0.65281603 105.40008749 -0.65089744 111.57950836 C-0.65013208 115.27089725 -0.65870581 118.96168713 -0.69043159 122.65295219 C-0.72484257 126.7690231 -0.71124513 130.88358123 -0.69311523 134.99975586 C-0.70997375 136.22430984 -0.72683228 137.44886383 -0.74420166 138.71052551 C-0.70951434 141.79857168 -0.63845009 144.60168001 0.03564453 147.61523438 C2.76161831 150.42763878 2.76161831 150.42763878 6.03564453 151.61523438 C9.59436722 154.42706465 11.71852288 156.95990435 12.58642578 161.49023438 C12.83590525 167.19262219 12.48201132 171.8046613 8.64501953 176.21289062 C3.63126828 180.58166902 -1.2994475 182.24362799 -7.93310547 181.85742188 C-11.79379999 181.3971083 -13.92815857 180.78823966 -16.56201172 177.80664062 C-20.78635929 172.3639233 -22.4270651 168.6715562 -21.96435547 161.61523438 C-20.58253533 155.44388512 -18.16980552 152.15937058 -12.96435547 148.61523438 C-12.30435547 148.61523438 -11.64435547 148.61523438 -10.96435547 148.61523438 C-10.96896443 147.88285962 -10.9735734 147.15048487 -10.97832203 146.39591694 C-11.08873438 128.57722523 -11.17147943 110.75860178 -11.22341633 92.939641 C-11.24920014 84.32251006 -11.28435385 75.70560744 -11.34155273 67.08862305 C-11.39138252 59.5782103 -11.4236452 52.0679629 -11.43479794 44.55738944 C-11.44131751 40.58035196 -11.45664332 36.60378752 -11.49300575 32.62690163 C-11.526959 28.88315141 -11.53741011 25.14006876 -11.52989388 21.3961792 C-11.53192404 19.36813339 -11.55882279 17.34016019 -11.5864563 15.31230164 C-11.53636094 6.49265651 -11.53636094 6.49265651 -8.801651 2.29777527 C-5.56116863 0.37614108 -3.75017474 -0.00745351 0 0 Z " fill="#8E8E8E" transform="translate(236.96435546875,260.384765625)"/>
<path d="M0 0 C1.26289352 -0.00953201 2.52578705 -0.01906403 3.82695007 -0.02888489 C5.20209786 -0.0286231 6.57724565 -0.02768432 7.95239258 -0.02612305 C9.38186262 -0.03001798 10.81133151 -0.03435427 12.24079895 -0.03910828 C15.24260187 -0.04656679 18.24428727 -0.04628626 21.24609375 -0.04101562 C24.29019063 -0.03641619 27.33388514 -0.04317541 30.37792969 -0.06152344 C53.68352703 -0.20091102 76.05495861 0.22606973 97.65942383 10.2746582 C97.65942383 10.9346582 97.65942383 11.5946582 97.65942383 12.2746582 C98.38000977 12.51571289 99.1005957 12.75676758 99.84301758 13.00512695 C103.0523862 14.45179103 105.13473789 16.20790684 107.72192383 18.5871582 C108.55852539 19.34641602 109.39512695 20.10567383 110.25708008 20.88793945 C114.46814088 25.07161124 117.05286496 28.51782226 118.65942383 34.2746582 C119.31942383 34.2746582 119.97942383 34.2746582 120.65942383 34.2746582 C127.33828803 49.85072366 127.59575023 67.69163453 124.65942383 84.2746582 C123.66942383 84.2746582 122.67942383 84.2746582 121.65942383 84.2746582 C121.69036133 85.8524707 121.69036133 85.8524707 121.72192383 87.4621582 C120.55703475 96.6992364 112.00567183 105.87412228 105.08520508 111.57543945 C100.54713987 114.7542774 95.72652715 117.06301664 90.65942383 119.2746582 C90.04164063 119.54584473 89.42385742 119.81703125 88.78735352 120.09643555 C79.13005193 124.29094774 70.72456247 126.37840291 60.17700195 126.43579102 C59.12650917 126.44323837 59.12650917 126.44323837 58.05479431 126.45083618 C55.76674374 126.4652934 53.47876232 126.47222977 51.19067383 126.4777832 C50.00859093 126.48202427 50.00859093 126.48202427 48.80262756 126.48635101 C44.63721387 126.50127186 40.47183422 126.51054782 36.30639648 126.51489258 C32.02280301 126.52038606 27.73952594 126.54445279 23.4560318 126.57286453 C20.14275207 126.59154737 16.82954803 126.59669937 13.51622009 126.59822845 C11.9374772 126.60123961 10.35873515 126.60921573 8.78004456 126.62241364 C-7.57721483 126.74947481 -7.57721483 126.74947481 -13.34057617 123.2746582 C-18.34903803 117.59455421 -19.07377742 112.19783583 -19.01928711 104.85473633 C-19.03126129 103.84229355 -19.04323547 102.82985077 -19.05557251 101.78672791 C-19.08762202 98.45939359 -19.08295619 95.13337025 -19.07495117 91.8059082 C-19.08340494 89.48237664 -19.09304642 87.15884911 -19.1038208 84.83532715 C-19.12018958 79.97331812 -19.11752159 75.11176466 -19.10229492 70.24975586 C-19.08499886 64.02856415 -19.12218343 57.80905791 -19.17455673 51.58811188 C-19.20767974 46.79239603 -19.20823201 41.99708429 -19.19940948 37.20127869 C-19.19976873 34.90800713 -19.21102148 32.61470975 -19.23351288 30.32154846 C-19.26082363 27.11147509 -19.24330463 23.90457687 -19.21459961 20.69458008 C-19.23191132 19.7540831 -19.24922302 18.81358612 -19.26705933 17.84458923 C-19.14806486 11.60883122 -17.5973308 8.25294354 -13.17570591 3.82132244 C-8.98755445 0.29150984 -5.35259383 0.022276 0 0 Z M-8.34057617 16.2746582 C-9.16411931 19.36360137 -9.15256693 22.30614107 -9.10107422 25.48950195 C-9.10998184 26.39757599 -9.11888947 27.30565002 -9.12806702 28.24124146 C-9.14931548 31.23228581 -9.12706157 34.22116749 -9.10229492 37.2121582 C-9.10379781 39.29671448 -9.10722898 41.38127017 -9.11250305 43.46582031 C-9.11683205 47.83044606 -9.10001453 52.19433234 -9.06787109 56.55883789 C-9.02809062 62.14784231 -9.03739175 67.73546027 -9.06210613 73.32450867 C-9.07630199 77.62776005 -9.06619225 81.93068867 -9.04859352 86.23391724 C-9.04275158 88.29435454 -9.04403444 90.35482498 -9.05261803 92.41525269 C-9.06062688 95.29751758 -9.03632363 98.1777642 -9.00341797 101.05981445 C-9.01196808 101.90778595 -9.02051819 102.75575745 -9.02932739 103.62942505 C-8.95032262 107.64722846 -8.60843915 110.50917907 -6.19543457 113.80503845 C-2.81630471 116.72818373 -1.40991749 117.020447 3 117.00341797 C4.89434029 117.0172628 4.89434029 117.0172628 6.82695007 117.03138733 C8.20211378 117.01066197 9.57726161 116.98885872 10.95239258 116.96606445 C12.38185755 116.9624801 13.81132969 116.96113146 15.24079895 116.9618988 C18.24301246 116.95720784 21.24415113 116.93240995 24.24609375 116.89208984 C28.03966078 116.84171007 31.83203809 116.8299014 35.62589836 116.83153343 C72.39895736 117.14470278 72.39895736 117.14470278 103.58129883 99.41137695 C106.2679615 96.42406394 107.88376618 94.27496 108.65942383 90.2746582 C109.31942383 90.2746582 109.97942383 90.2746582 110.65942383 90.2746582 C111.07514648 88.8844043 111.07514648 88.8844043 111.49926758 87.46606445 C111.86149414 86.26852539 112.2237207 85.07098633 112.59692383 83.8371582 C112.95657227 82.64219727 113.3162207 81.44723633 113.68676758 80.21606445 C114.65942383 77.2746582 114.65942383 77.2746582 115.65942383 76.2746582 C116.64179011 59.80288863 115.87272207 41.31497041 104.65942383 28.2746582 C87.55606264 13.35354406 69.3891976 9.99189025 47.28442383 9.8684082 C46.23924088 9.85992607 46.23924088 9.85992607 45.17294312 9.85127258 C41.5025694 9.82165144 37.83234619 9.80295251 34.16186523 9.79418945 C30.39118693 9.78312062 26.62191701 9.7347619 22.85168457 9.67824554 C19.92620714 9.64096063 17.00107335 9.63058119 14.07537842 9.6275177 C12.68471368 9.6214951 11.29405279 9.60554072 9.90362549 9.57914734 C7.96444598 9.54488762 6.02466504 9.55249709 4.08520508 9.56176758 C2.9860376 9.55447632 1.88687012 9.54718506 0.75439453 9.53967285 C-3.58897222 10.57112395 -5.99224302 12.47652841 -8.34057617 16.2746582 Z " fill="#D1D1D1" transform="translate(244.340576171875,82.725341796875)"/>
<path d="M0 0 C4.11711403 2.05855702 6.31852589 3.74232244 8 8 C8.1953125 10.359375 8.1953125 10.359375 8.125 12.75 C8.10695312 13.54921875 8.08890625 14.3484375 8.0703125 15.171875 C8.04710937 15.77515625 8.02390625 16.3784375 8 17 C7.34 17 6.68 17 6 17 C5.731875 17.61875 5.46375 18.2375 5.1875 18.875 C4 21 4 21 1 23 C0.69209801 25.49266472 0.58255435 27.7402585 0.59886169 30.23690796 C0.59206502 30.99125173 0.58526836 31.74559551 0.57826573 32.52279818 C0.55919411 35.06400215 0.56173689 37.60472825 0.56420898 40.14599609 C0.5552376 41.96244431 0.5450308 43.77888678 0.53367615 45.59532166 C0.50710767 50.53955939 0.50013979 55.4836415 0.49822879 60.42794371 C0.49538512 64.55084344 0.48435435 68.67370664 0.4737125 72.79659235 C0.44926008 82.52164018 0.44196146 92.24660466 0.4440918 101.97167969 C0.44589443 112.01360591 0.41423814 122.05504879 0.36686081 132.09685266 C0.32767107 140.70922166 0.31153856 149.32143246 0.31345803 157.93388999 C0.31422413 163.08175411 0.3056085 168.229189 0.27392387 173.37696457 C0.24494116 178.21821009 0.24459971 183.05861432 0.26647377 187.89988899 C0.26961907 189.67848624 0.26247624 191.45713529 0.2443924 193.23564339 C0.2213242 195.66113503 0.23509239 198.08369881 0.25828552 200.50912476 C0.23513949 201.5693395 0.23513949 201.5693395 0.21152586 202.65097272 C0.19450046 204.87910732 0.19450046 204.87910732 1 208 C3.85779401 210.39369742 3.85779401 210.39369742 7 212 C10.33478377 216.82384497 11.84644907 222.18066264 11 228 C9.60097737 232.38746743 7.76456402 235.89776213 3.875 238.5 C-1.60850605 241.10729605 -7.09861887 240.95360079 -12.79296875 239.08203125 C-19.49751551 236.09255802 -19.49751551 236.09255802 -21.27734375 232.22265625 C-22.51868222 226.68695768 -22.30844349 221.51464403 -21 216 C-18.39201897 211.96463293 -15.55241309 209.51747103 -11 208 C-10.67 146.62 -10.34 85.24 -10 22 C-10.99 21.67 -11.98 21.34 -13 21 C-16.17981213 18.0927432 -17.32045806 15.7839961 -17.5625 11.5625 C-17.35354964 6.55604929 -15.56906895 4.39911328 -12 1 C-8.28986322 -0.85506839 -4.04907177 -0.45334699 0 0 Z " fill="#A3A3A3" transform="translate(200,256)"/>
<path d="M0 0 C3.3 0 6.6 0 10 0 C10 33.99 10 67.98 10 103 C11.32 103.66 12.64 104.32 14 105 C16.8162748 108.41976226 17.53247954 111.43348876 17.35546875 115.8671875 C16.73711609 119.57730344 15.37281312 123.06327759 13 126 C8.89916662 127.51697495 4.05335705 127.78764268 -0.046875 126.21484375 C-3.57501388 124.02034137 -5.33388529 120.73235934 -7 117 C-7.71869589 113.89135509 -7.53772607 112.28012903 -7 109 C-4.625 106 -4.625 106 -2 104 C-1.34 104 -0.68 104 0 104 C0 69.68 0 35.36 0 0 Z " fill="#DDDDDD" transform="translate(190,84)"/>
<path d="M0 0 C4.20268174 -0.76800275 7.8114747 -0.9336177 12 0 C15.25499056 2.81190284 17.30516704 6.26359196 19.59179688 9.88037109 C22.49676151 14.25292708 25.79231626 18.34764549 29 22.5 C30.40379171 24.33743634 31.80616899 26.17595428 33.20703125 28.015625 C34.19630615 29.3140332 34.19630615 29.3140332 35.20556641 30.63867188 C38.07071198 34.40896956 40.90481108 38.20194227 43.73828125 41.99609375 C45.49584252 44.33040225 47.26412202 46.65463248 49.04296875 48.97265625 C49.58630859 49.68123779 50.12964844 50.38981934 50.68945312 51.11987305 C51.8085807 52.57567907 52.93095549 54.0289949 54.05664062 55.47973633 C56.79986586 59.03400555 59.44479387 62.60849658 61.92578125 66.3515625 C66.27140839 73.39171259 66.27140839 73.39171259 72.6953125 78.19921875 C75.27542707 78.66616199 75.27542707 78.66616199 77.765625 78.76171875 C81.62711615 79.17352113 83.3845236 81.2503966 86 84 C87.35159865 88.05479595 87.68231203 91.76521555 87 96 C84.625 99.0625 84.625 99.0625 82 101 C81.34 101 80.68 101 80 101 C80 101.66 80 102.32 80 103 C70.83574289 104.02730996 70.83574289 104.02730996 66.96875 101.86328125 C63.39065828 98.24134037 62.75551402 95.26173819 62.625 90.25 C62.33288529 82.6644405 58.73012401 78.66051204 54 73 C52.40937829 70.94311564 50.82634854 68.88034332 49.25 66.8125 C48.40147169 65.71451129 47.55250178 64.61686374 46.703125 63.51953125 C43.76448322 59.70773633 40.88129947 55.85522099 38 52 C32.7285574 44.95127065 27.38327883 37.96353165 22 31 C18.65618032 26.67460745 15.32164995 22.3424383 12 18 C11.46955078 17.3080957 10.93910156 16.61619141 10.39257812 15.90332031 C8.71468041 13.71041469 7.04404124 11.51215131 5.375 9.3125 C4.84148926 8.61664795 4.30797852 7.9207959 3.75830078 7.20385742 C0 2.22883611 0 2.22883611 0 0 Z " fill="#767676" transform="translate(331,261)"/>
<path d="M0 0 C3.5625 0.9375 3.5625 0.9375 6 3.125 C7.87513988 6.50025179 8.27485686 8.1382634 7.5625 11.9375 C5.5 14.8125 5.5 14.8125 2.5625 16.9375 C-1.12467269 17.45499792 -3.41130129 17.3965889 -6.8125 15.875 C-9.24831016 12.97076481 -9.37300991 10.67792509 -9.4375 6.9375 C-7.36636058 2.2774363 -5.33561305 -0.09701115 0 0 Z " fill="#1B1B1B" transform="translate(492.4375,394.0625)"/>
<path d="M0 0 C73.59 0 147.18 0 223 0 C223 0.33 223 0.66 223 1 C221.29568581 1.00634791 221.29568581 1.00634791 219.55694103 1.01282406 C191.9415935 1.1159059 164.32627267 1.22463984 136.71097088 1.33933926 C123.35655768 1.39467488 110.0021425 1.44815744 96.64770508 1.49731445 C85.01130287 1.54015212 73.37492037 1.58642907 61.73854858 1.63687855 C55.57420171 1.66348283 49.40985875 1.68833602 43.24548912 1.70907402 C37.44831644 1.72863096 31.65118127 1.75277196 25.85404205 1.78049088 C23.72189577 1.7898663 21.58974126 1.79753981 19.45758247 1.80341911 C16.55527299 1.81167191 13.65305474 1.82594634 10.7507782 1.84178162 C9.89961715 1.84275972 9.0484561 1.84373783 8.17150229 1.84474558 C4.86252374 1.86809532 2.16109693 1.94630102 -1 3 C-0.67 2.01 -0.34 1.02 0 0 Z " fill="#515151" transform="translate(92,30)"/>
<path d="M0 0 C3.4375 1.8125 3.4375 1.8125 4.9375 3.5625 C5.81502377 7.51135696 5.43221362 11.24189955 3.25 14.6875 C0.59550608 16.33511692 -1.44577487 16.68783099 -4.5625 16.8125 C-7.39243441 15.59048287 -9.03696153 14.48136714 -10.9375 12.0625 C-11.87803869 8.67656073 -11.42235198 6.19048992 -10.5625 2.8125 C-7.1625527 -0.5874473 -4.64380383 -1.54793461 0 0 Z " fill="#020202" transform="translate(392.5625,381.1875)"/>
<path d="M0 0 C0.99 0.495 0.99 0.495 2 1 C-13.5131319 8.34636294 -29.55453683 8.42593078 -46.34375 8.29296875 C-48.45080256 8.28735926 -50.55785909 8.28309558 -52.66491699 8.28010559 C-58.15573318 8.26876322 -63.64630351 8.23938988 -69.13702393 8.20599365 C-74.76188839 8.17506144 -80.38679338 8.16155124 -86.01171875 8.14648438 C-97.00791931 8.11450795 -108.00393905 8.06344324 -119 8 C-119 7.67 -119 7.34 -119 7 C-104.14184394 6.41888691 -89.29379521 5.94379706 -74.42430878 5.839077 C-72.32242197 5.82412259 -70.22057293 5.80648565 -68.11871338 5.78811646 C-56.54982575 5.68896242 -56.54982575 5.68896242 -51.05908203 5.67407227 C-33.72689212 5.62022693 -16.63452638 5.54484213 0 0 Z " fill="#909090" transform="translate(357,230)"/>
<path d="M0 0 C1.31677734 0.00580078 1.31677734 0.00580078 2.66015625 0.01171875 C4.9375 0.3125 4.9375 0.3125 6.9375 2.3125 C7.49836415 5.37068559 7.45966759 8.25020467 6.9375 11.3125 C4.20757924 14.70421974 2.62387738 15.22966135 -1.6875 15.75 C-5.0625 15.3125 -5.0625 15.3125 -6.75 14.06640625 C-8.40978442 11.84842053 -8.46498225 10.56072457 -8.4375 7.8125 C-8.44523438 7.0390625 -8.45296875 6.265625 -8.4609375 5.46875 C-7.54922921 0.53479923 -4.58895688 -0.08785926 0 0 Z " fill="#050505" transform="translate(195.0625,472.6875)"/>
<path d="M0 0 C1.9453125 0.33984375 1.9453125 0.33984375 4.5078125 1.83984375 C6.34503274 5.03500938 6.2222466 7.00415213 5.546875 10.56640625 C4.9453125 12.33984375 4.9453125 12.33984375 3.3203125 13.83984375 C0.09741608 14.51834826 -2.77113499 14.57864757 -6.0546875 14.33984375 C-7.0446875 13.67984375 -8.0346875 13.01984375 -9.0546875 12.33984375 C-9.453125 10.28125 -9.453125 10.28125 -9.4296875 7.90234375 C-9.43742187 7.11988281 -9.44515625 6.33742188 -9.453125 5.53125 C-8.4914542 0.24206063 -4.94623051 -0.22814716 0 0 Z " fill="#151515" transform="translate(127.0546875,327.66015625)"/>
<path d="M0 0 C2.81374263 1.94797566 3.79326562 3.10415102 4.5625 6.4375 C3.72403623 10.25716828 2.10465401 11.68802361 -1 14 C-4.625 14.625 -4.625 14.625 -8 14 C-10 11.9375 -10 11.9375 -11 9 C-10.875 5.3125 -10.875 5.3125 -10 2 C-6.2794164 -0.48038907 -4.40203429 -0.46337203 0 0 Z " fill="#0D0D0D" transform="translate(80,18)"/>
<path d="M0 0 C2.375 1.5625 2.375 1.5625 4 4 C4.42213381 7.43737531 4.60856522 9.82090489 3 12.9375 C-0.24021772 14.65886567 -3.41957756 14.52960415 -7 14 C-9 12.9375 -9 12.9375 -10 11 C-10.50030235 7.06905293 -10.5996142 4.8994213 -8.375 1.5625 C-5.28314769 -0.47161336 -3.63632575 -0.60605429 0 0 Z " fill="#090909" transform="translate(31,81)"/>
<path d="M0 0 C3.5 0.5 3.5 0.5 5.4375 2.0625 C6.89343329 5.40258224 6.8931463 7.89615894 6.5 11.5 C5.4375 13.4375 5.4375 13.4375 3.5 14.5 C-0.86706908 14.88991688 -2.80513897 14.96324069 -6.5 12.5 C-6.89307503 8.43822471 -7.02833811 5.74314849 -5.4375 2 C-3.5 0.5 -3.5 0.5 0 0 Z " fill="#060606" transform="translate(231.5,417.5)"/>
<path d="M0 0 C0.99 0.33 1.98 0.66 3 1 C2.34 1.66 1.68 2.32 1 3 C0.78236556 5.76924021 0.68857851 8.44144644 0.68115234 11.21337891 C0.66608391 12.48665794 0.66608391 12.48665794 0.65071106 13.78565979 C0.61975093 16.59928695 0.60280845 19.41281843 0.5859375 22.2265625 C0.56723616 24.174274 0.54766353 26.12197731 0.5272522 28.06967163 C0.47581573 33.20214013 0.43625177 38.33463493 0.39910889 43.46722412 C0.35914125 48.70217455 0.30801598 53.93701449 0.2578125 59.171875 C0.16091695 69.44783918 0.07655595 79.72386558 0 90 C-0.33 90 -0.66 90 -1 90 C-1.02312228 78.41311598 -1.0409145 66.82623741 -1.05181217 55.23933506 C-1.05704125 49.85966238 -1.06413935 44.48000542 -1.07543945 39.1003418 C-1.08626745 33.91325157 -1.09227665 28.72617651 -1.09487724 23.53907585 C-1.09673165 21.5554372 -1.10035256 19.57179942 -1.10573006 17.58816719 C-1.11293932 14.81990864 -1.11399099 12.05171362 -1.11352539 9.28344727 C-1.11712067 8.45482681 -1.12071594 7.62620636 -1.12442017 6.7724762 C-1.11405216 1.11405216 -1.11405216 1.11405216 0 0 Z " fill="#B4B4B4" transform="translate(228,264)"/>
<path d="M0 0 C0.99 0.33 1.98 0.66 3 1 C2.51789062 1.38671875 2.03578125 1.7734375 1.5390625 2.171875 C0.90742188 2.69265625 0.27578125 3.2134375 -0.375 3.75 C-1.31472656 4.51570313 -1.31472656 4.51570313 -2.2734375 5.296875 C-5.13955059 8.12408158 -5.93570463 10.31846908 -6.3125 14.3125 C-5.95798013 18.49583442 -4.98700216 21.30985313 -3 25 C-0.93045153 26.78344178 -0.93045153 26.78344178 1 28 C1 28.66 1 29.32 1 30 C5.95 30.33 10.9 30.66 16 31 C16 30.34 16 29.68 16 29 C17.32 28.67 18.64 28.34 20 28 C17.375 31.875 17.375 31.875 14 33 C7.11492608 33.73424739 2.59542184 33.14061216 -3 29 C-7.98523759 23.75238148 -8.45411861 18.88249336 -8.42578125 11.8359375 C-7.7354728 7.23810326 -5.28466184 4.182548 -2 1 C-1.34 0.67 -0.68 0.34 0 0 Z " fill="#797979" transform="translate(19,73)"/>
<path d="M0 0 C29.7 0 59.4 0 90 0 C90 0.33 90 0.66 90 1 C88.90419113 1.01030746 87.80838226 1.02061493 86.67936707 1.03123474 C76.36422785 1.12889153 66.04915 1.23161829 55.73411083 1.33933926 C50.43075335 1.39455896 45.12739034 1.44797751 39.82397461 1.49731445 C34.70814975 1.54497196 29.59239254 1.59731539 24.47664833 1.65294075 C22.5225931 1.673358 20.56851932 1.69207212 18.61443138 1.70907402 C15.88245297 1.73313189 13.15060256 1.76318469 10.41870117 1.79467773 C9.60662201 1.8004332 8.79454285 1.80618866 7.95785522 1.81211853 C4.72084989 1.85467528 2.09227688 1.96924104 -1 3 C-0.67 2.01 -0.34 1.02 0 0 Z " fill="#242424" transform="translate(237,238)"/>
<path d="M0 0 C0.33 0 0.66 0 1 0 C1.25464277 7.09760427 1.42911288 14.19402237 1.54931641 21.29516602 C1.59944662 23.70772308 1.66757277 26.11997872 1.75439453 28.53149414 C2.50000378 49.78135787 2.50000378 49.78135787 -1.20019531 54.49658203 C-3.69624877 56.68770201 -6.17894966 58.27557099 -9 60 C-10.33255035 62.0716205 -10.33255035 62.0716205 -11 64 C-11.4375 61.4375 -11.4375 61.4375 -11 58 C-8.22062985 54.32405884 -5.40026714 51.46675571 -1 50 C-0.67 33.5 -0.34 17 0 0 Z " fill="#828282" transform="translate(190,414)"/>
<path d="M0 0 C3.4375 1.8125 3.4375 1.8125 4.9375 3.5625 C5.81502377 7.51135696 5.43221362 11.24189955 3.25 14.6875 C0.59550608 16.33511692 -1.44577487 16.68783099 -4.5625 16.8125 C-7.39243441 15.59048287 -9.03696153 14.48136714 -10.9375 12.0625 C-11.87803869 8.67656073 -11.42235198 6.19048992 -10.5625 2.8125 C-7.1625527 -0.5874473 -4.64380383 -1.54793461 0 0 Z M-8 3.4375 C-10.01064771 6.49368452 -10.09770313 8.21899325 -9.5625 11.8125 C-8.62652685 13.83201062 -8.62652685 13.83201062 -6.5625 14.8125 C-3.17931143 15.17498449 -0.69465135 15.39683618 2.375 13.8125 C4.15703537 10.45808048 3.73608742 7.57470155 3.4375 3.8125 C1.50582602 1.46436266 1.50582602 1.46436266 -1.9375 1.4375 C-5.54278028 1.52582088 -5.54278028 1.52582088 -8 3.4375 Z " fill="#4B4B4B" transform="translate(392.5625,381.1875)"/>
<path d="M0 0 C3.82142857 2.46543779 3.82142857 2.46543779 4.60546875 4.8125 C5.92267823 12.11583971 5.48901882 17.38759204 1.2890625 23.6015625 C0.86367187 24.06304687 0.43828125 24.52453125 0 25 C-0.66 25 -1.32 25 -2 25 C-2.33 25.99 -2.66 26.98 -3 28 C-11.30027547 29.16406302 -16.83517359 29.63606415 -24 25 C-23.67 24.34 -23.34 23.68 -23 23 C-22.21625 23.495 -21.4325 23.99 -20.625 24.5 C-14.84492991 26.89175314 -9.59233793 26.76810013 -3.625 25 C-0.00101961 22.23887208 1.59610688 19.29892697 3 15 C3.64356595 9.66759638 2.58721462 6.63542619 0 2 C0 1.34 0 0.68 0 0 Z " fill="#565656" transform="translate(207,469)"/>
<path d="M0 0 C23.43 0 46.86 0 71 0 C71 0.33 71 0.66 71 1 C69.71333687 1.0154612 69.71333687 1.0154612 68.40068054 1.03123474 C60.3223837 1.12915653 52.24416092 1.23166345 44.16598797 1.33933926 C40.0127852 1.39453599 35.85957535 1.44795082 31.70629883 1.49731445 C27.6992001 1.54500591 23.69218686 1.59735049 19.6851902 1.65294075 C18.1553847 1.67334263 16.62555577 1.69205929 15.09570885 1.70907402 C12.95523988 1.73316605 10.81493207 1.76321392 8.67456055 1.79467773 C7.45544479 1.81022202 6.23632904 1.8257663 4.98027039 1.84178162 C1.94558057 1.87064557 1.94558057 1.87064557 -1 3 C-0.67 2.01 -0.34 1.02 0 0 Z " fill="#454545" transform="translate(92,30)"/>
<path d="M0 0 C0 6.97499047 -6.5014022 14.02155177 -11 19 C-25.3070018 32 -25.3070018 32 -31 32 C-31 31.34 -31 30.68 -31 30 C-29.18889095 28.84612429 -27.3232679 27.77733859 -25.4375 26.75 C-13.72090464 20.04695365 -7.2836407 11.22894607 0 0 Z " fill="#737373" transform="translate(388,189)"/>
<path d="M0 0 C1.65 1.65 3.3 3.3 5 5 C5.61875 4.67 6.2375 4.34 6.875 4 C12.30944749 2.2609768 17.78146077 2.04919747 23.0625 4.3125 C25 6 25 6 26 9 C21.25 7.125 21.25 7.125 19 6 C14.78680441 5.85717981 11.38225597 5.91717787 7.25 6.8125 C5.64125 6.9053125 5.64125 6.9053125 4 7 C1.5625 4.6875 1.5625 4.6875 0 2 C0 1.34 0 0.68 0 0 Z " fill="#3F3F3F" transform="translate(477,382)"/>
<path d="M0 0 C0.66 0.33 1.32 0.66 2 1 C-6.76615568 4.70046736 -14.38669989 7.34333215 -24 7 C-23.67 6.34 -23.34 5.68 -23 5 C-21.09814453 4.42163086 -21.09814453 4.42163086 -18.6328125 3.96484375 C-17.74722656 3.79533203 -16.86164063 3.62582031 -15.94921875 3.45117188 C-15.01722656 3.28166016 -14.08523438 3.11214844 -13.125 2.9375 C-11.29397464 2.59402314 -9.4632321 2.24903425 -7.6328125 1.90234375 C-6.81699707 1.75273193 -6.00118164 1.60312012 -5.16064453 1.44897461 C-2.83290238 1.00908066 -2.83290238 1.00908066 0 0 Z " fill="#646464" transform="translate(357,230)"/>
<path d="M0 0 C0.90105469 0.02707031 1.80210937 0.05414063 2.73046875 0.08203125 C3.76107422 0.13423828 3.76107422 0.13423828 4.8125 0.1875 C5.4725 1.5075 6.1325 2.8275 6.8125 4.1875 C5.8225 3.5275 4.8325 2.8675 3.8125 2.1875 C0.51186562 1.83636868 -1.54903511 1.88506926 -4.5625 3.3125 C-6.4507622 5.15253532 -6.4507622 5.15253532 -6.625 8.125 C-6.15653694 11.40424143 -5.40413014 12.78615068 -3.1875 15.1875 C-7.0625 13.3125 -7.0625 13.3125 -8.1875 12.1875 C-8.390625 10.2265625 -8.390625 10.2265625 -8.4375 7.8125 C-8.46328125 7.02101563 -8.4890625 6.22953125 -8.515625 5.4140625 C-8.1875 3.1875 -8.1875 3.1875 -6.99609375 1.41015625 C-4.5567969 -0.23887164 -2.91614057 -0.11361587 0 0 Z " fill="#4C4C4C" transform="translate(195.1875,472.8125)"/>
<path d="M0 0 C0.33 0 0.66 0 1 0 C1.3046875 2.21484375 1.3046875 2.21484375 1 5 C-1.1171875 7.31640625 -1.1171875 7.31640625 -3.875 9.5625 C-8.26477298 13.14939147 -8.26477298 13.14939147 -11 18 C-11.4375 15.4375 -11.4375 15.4375 -11 12 C-8.22062985 8.32405884 -5.40026714 5.46675571 -1 4 C-0.26676204 1.98491642 -0.26676204 1.98491642 0 0 Z " fill="#6D6D6D" transform="translate(190,460)"/>
<path d="M0 0 C-6.83923859 3.19164467 -12.38445882 5.73226358 -20 5 C-20 4.67 -20 4.34 -20 4 C-17.23208055 3.13521219 -14.46134374 2.28288326 -11.6875 1.4375 C-10.90181641 1.19064453 -10.11613281 0.94378906 -9.30664062 0.68945312 C-8.54931641 0.46064453 -7.79199219 0.23183594 -7.01171875 -0.00390625 C-5.96697388 -0.32597046 -5.96697388 -0.32597046 -4.90112305 -0.65454102 C-3 -1 -3 -1 0 0 Z " fill="#868686" transform="translate(332,203)"/>
<path d="M0 0 C9.57 0 19.14 0 29 0 C29 0.33 29 0.66 29 1 C28.19780029 1.02505615 27.39560059 1.0501123 26.5690918 1.07592773 C22.94172926 1.19182043 19.31463083 1.31457751 15.6875 1.4375 C14.42486328 1.47681641 13.16222656 1.51613281 11.86132812 1.55664062 C10.04858398 1.61948242 10.04858398 1.61948242 8.19921875 1.68359375 C6.52605591 1.73858032 6.52605591 1.73858032 4.8190918 1.79467773 C1.92126429 1.88931209 1.92126429 1.88931209 -1 3 C-0.67 2.01 -0.34 1.02 0 0 Z " fill="#3F3F3F" transform="translate(92,30)"/>
<path d="M0 0 C2.4178712 -0.10826289 4.83087556 -0.18739789 7.25 -0.25 C8.27287109 -0.30027344 8.27287109 -0.30027344 9.31640625 -0.3515625 C12.92181813 -0.4215705 14.64068812 -0.29151719 17.484375 2.015625 C17.98453125 2.67046875 18.4846875 3.3253125 19 4 C16 4 16 4 13.9375 3 C9.64721349 1.53947693 5.49124612 1.84302441 1 2 C0.67 1.34 0.34 0.68 0 0 Z " fill="#444444" transform="translate(382,372)"/>
<path d="M0 0 C7.26 0 14.52 0 22 0 C22 0.33 22 0.66 22 1 C21.40985107 1.02505615 20.81970215 1.0501123 20.21166992 1.07592773 C17.53673186 1.19200052 14.8621362 1.31467572 12.1875 1.4375 C10.7943457 1.49647461 10.7943457 1.49647461 9.37304688 1.55664062 C8.0340332 1.61948242 8.0340332 1.61948242 6.66796875 1.68359375 C5.84578857 1.72025146 5.0236084 1.75690918 4.17651367 1.79467773 C1.82094822 1.93427772 1.82094822 1.93427772 -1 3 C-0.67 2.01 -0.34 1.02 0 0 Z " fill="#2A2A2A" transform="translate(237,238)"/>
<path d="M0 0 C0.66 0.33 1.32 0.66 2 1 C1.04882866 2.1725131 0.08882991 3.33787015 -0.875 4.5 C-1.40867188 5.1496875 -1.94234375 5.799375 -2.4921875 6.46875 C-2.98976562 6.9740625 -3.48734375 7.479375 -4 8 C-4.66 8 -5.32 8 -6 8 C-6 9.65 -6 11.3 -6 13 C-6.33 13 -6.66 13 -7 13 C-7.4375 10.4375 -7.4375 10.4375 -7 7 C-4.91317274 4.3796981 -2.53313752 2.1841849 0 0 Z " fill="#A9A9A9" transform="translate(234,84)"/>
<path d="M0 0 C0 0.66 0 1.32 0 2 C-1.093125 2.28875 -2.18625 2.5775 -3.3125 2.875 C-7.04013845 3.81893204 -7.04013845 3.81893204 -10 6 C-6.05970149 -1.88059701 -6.05970149 -1.88059701 0 0 Z " fill="#2D2D2D" transform="translate(393,381)"/>
<path d="M0 0 C0.66 0.33 1.32 0.66 2 1 C0.625 3 0.625 3 -1 5 C-1.66 5 -2.32 5 -3 5 C-3.33 5.99 -3.66 6.98 -4 8 C-5.32 8 -6.64 8 -8 8 C-8 7.34 -8 6.68 -8 6 C-7.05125 5.566875 -6.1025 5.13375 -5.125 4.6875 C-1.79958063 3.20697799 -1.79958063 3.20697799 0 0 Z " fill="#464646" transform="translate(208,489)"/>
<path d="M0 0 C0.99 0.2165625 0.99 0.2165625 2 0.4375 C5.65599551 1.12299916 9.30622195 1.56175515 13 2 C13 2.33 13 2.66 13 3 C11.39667209 3.08121924 9.79215974 3.13929134 8.1875 3.1875 C7.29417969 3.22230469 6.40085937 3.25710937 5.48046875 3.29296875 C2.58352485 2.95081002 1.77444972 2.24606427 0 0 Z " fill="#696969" transform="translate(88,68)"/>
<path d="M0 0 C0.66 0.33 1.32 0.66 2 1 C-1.625 5.875 -1.625 5.875 -5 7 C-3.70700306 4.11562221 -2.34058637 2.12780579 0 0 Z " fill="#898989" transform="translate(90,47)"/>
</svg>
